<?xml version="1.0" encoding="utf-8"?>
<!-- Generator: Adobe Illustrator 16.0.0, SVG Export Plug-In . SVG Version: 6.00 Build 0)  -->
<!DOCTYPE svg PUBLIC "-//W3C//DTD SVG 1.1//EN" "http://www.w3.org/Graphics/SVG/1.1/DTD/svg11.dtd">
<svg version="1.1" id="Capa_1" xmlns="http://www.w3.org/2000/svg" xmlns:xlink="http://www.w3.org/1999/xlink" x="0px" y="0px"
	 width="841.89px" height="595.28px" viewBox="0 0 841.89 595.28" enable-background="new 0 0 841.89 595.28" xml:space="preserve">
<g>
	<path fill-rule="evenodd" clip-rule="evenodd" fill="#FF0038" d="M390.658,140.01c87.051,0,157.627,70.578,157.627,157.627
		c0,87.05-70.576,157.626-157.627,157.626c-87.049,0-157.627-70.576-157.627-157.626C233.031,210.587,303.609,140.01,390.658,140.01
		 M390.658,36.554c144.188,0,261.083,116.896,261.083,261.083c-0.007,144.189-116.896,261.083-261.083,261.083
		c-144.188,0-261.083-116.895-261.083-261.077C129.575,153.45,246.47,36.554,390.658,36.554z"/>
	<path fill-rule="evenodd" clip-rule="evenodd" fill="#FF0038" d="M659.991,37.049c-28.894,0-52.322,23.43-52.322,52.322
		c0,28.897,23.429,52.323,52.322,52.323c28.896,0,52.323-23.426,52.323-52.323C712.314,60.479,688.888,37.049,659.991,37.049"/>
</g>
</svg>
