<?xml version="1.0" encoding="utf-8"?>
<!-- Generator: Adobe Illustrator 16.0.0, SVG Export Plug-In . SVG Version: 6.00 Build 0)  -->
<!DOCTYPE svg PUBLIC "-//W3C//DTD SVG 1.1//EN" "http://www.w3.org/Graphics/SVG/1.1/DTD/svg11.dtd">
<svg version="1.1" id="Capa_1" xmlns="http://www.w3.org/2000/svg" xmlns:xlink="http://www.w3.org/1999/xlink" x="0px" y="0px"
	 width="83.04px" height="25.511px" viewBox="0 0 83.04 25.511" enable-background="new 0 0 83.04 25.511" xml:space="preserve">
<path fill-rule="evenodd" clip-rule="evenodd" fill="#FFFFFF" d="M68.323,5.833c0-0.48-0.15-0.883-0.457-1.151
	c-0.237-0.212-0.529-0.339-1.049-0.417L66.179,4.17c-0.26-0.04-0.489-0.134-0.631-0.26c-0.149-0.134-0.213-0.315-0.213-0.52
	c0-0.497,0.363-0.875,1.025-0.875c0.473,0,0.875,0.103,1.221,0.434l0.545-0.536c-0.481-0.449-1.002-0.639-1.742-0.639
	c-1.167,0-1.877,0.67-1.877,1.647c0,0.458,0.135,0.812,0.41,1.072c0.244,0.229,0.607,0.386,1.064,0.45l0.662,0.094
	c0.331,0.047,0.473,0.103,0.615,0.237c0.149,0.134,0.221,0.338,0.221,0.583c0,0.544-0.426,0.859-1.159,0.859
	c-0.575,0-1.024-0.126-1.435-0.536l-0.568,0.56c0.537,0.544,1.144,0.741,1.987,0.741C67.479,7.481,68.323,6.866,68.323,5.833
	 M63.349,7.434V1.821h-0.852v5.613H63.349z M61.354,5.833c0-0.48-0.15-0.883-0.457-1.151c-0.236-0.212-0.529-0.339-1.049-0.417
	L59.21,4.17c-0.26-0.04-0.488-0.134-0.631-0.26c-0.149-0.134-0.213-0.315-0.213-0.52c0-0.497,0.363-0.875,1.025-0.875
	c0.473,0,0.875,0.103,1.222,0.434l0.544-0.536c-0.48-0.449-1.002-0.639-1.742-0.639c-1.167,0-1.876,0.67-1.876,1.647
	c0,0.458,0.134,0.812,0.409,1.072c0.244,0.229,0.607,0.386,1.064,0.45l0.662,0.094c0.332,0.047,0.473,0.103,0.615,0.237
	c0.149,0.134,0.221,0.338,0.221,0.583c0,0.544-0.426,0.859-1.158,0.859c-0.576,0-1.025-0.126-1.436-0.536L57.35,6.74
	c0.536,0.544,1.144,0.741,1.986,0.741C60.511,7.481,61.354,6.866,61.354,5.833z M56.38,7.434V1.821h-0.852v5.613H56.38z
	 M54.56,7.434V6.669h-2.705V1.821h-0.851v5.613H54.56z M48.86,0h-0.892l-0.591,1.277h0.607L48.86,0z M48.679,5.581h-1.727
	l0.875-2.491L48.679,5.581z M50.208,7.434L48.15,1.821h-0.687l-2.057,5.613h0.906L46.7,6.306h2.215l0.387,1.127H50.208z
	 M44.61,7.434V1.821h-0.852v3.941l-2.593-3.941h-0.78v5.613h0.851v-3.95l2.594,3.95H44.61z M38.06,5.581h-1.726l0.875-2.491
	L38.06,5.581z M39.589,7.434l-2.058-5.613h-0.686l-2.058,5.613h0.907l0.386-1.127h2.215l0.386,1.127H39.589z"/>
<path fill-rule="evenodd" clip-rule="evenodd" fill="#FFFFFF" d="M83.04,15.818v-0.766h-2.735v-1.686h2.333v-0.757h-2.333v-1.64
	h2.735v-0.765h-3.586v5.613H83.04z M78.483,10.97v-0.765h-3.941v0.765h1.545v4.848h0.852V10.97H78.483z M73.573,15.818v-5.613
	h-0.852v3.941l-2.594-3.941h-0.78v5.613h0.851v-3.95l2.594,3.95H73.573z M68.181,15.818v-0.766h-2.735v-1.686h2.333v-0.757h-2.333
	v-1.64h2.735v-0.765h-3.586v5.613H68.181z M63.341,13.642v-0.859h-2.05v0.725h1.198v0.315c0,0.363-0.078,0.647-0.283,0.883
	c-0.221,0.252-0.545,0.394-0.915,0.394c-0.331,0-0.63-0.126-0.827-0.339c-0.276-0.3-0.34-0.623-0.34-1.75s0.063-1.442,0.34-1.742
	c0.197-0.213,0.496-0.347,0.827-0.347c0.63,0,1.04,0.362,1.183,0.978h0.859c-0.158-0.962-0.852-1.742-2.042-1.742
	c-0.599,0-1.088,0.212-1.474,0.599c-0.553,0.552-0.545,1.174-0.545,2.254s-0.008,1.703,0.545,2.254c0.386,0.387,0.891,0.6,1.474,0.6
	c0.591,0,1.12-0.189,1.545-0.639C63.206,14.832,63.341,14.367,63.341,13.642z M58.012,15.818v-5.613h-0.851v5.613H58.012z
	 M56.19,15.818v-0.766h-2.703v-4.847h-0.852v5.613H56.19z M51.47,15.818v-0.766h-2.736v-1.686h2.334v-0.757h-2.334v-1.64h2.736
	v-0.765h-3.588v5.613H51.47z M46.913,10.97v-0.765h-3.941v0.765h1.545v4.848h0.852V10.97H46.913z M42.001,15.818v-5.613H41.15v3.941
	l-2.594-3.941h-0.78v5.613h0.851v-3.95l2.594,3.95H42.001z M36.31,15.818v-5.613h-0.851v5.613H36.31z"/>
<path fill-rule="evenodd" clip-rule="evenodd" fill="#FFFFFF" d="M80.093,22.697c0-0.449-0.182-0.836-0.49-1.088
	c-0.228-0.197-0.473-0.301-1-0.371l-0.607-0.095c-0.314-0.055-0.639-0.181-0.836-0.347s-0.291-0.41-0.291-0.733
	c0-0.717,0.48-1.158,1.301-1.158c0.662,0,1.032,0.204,1.363,0.521l0.275-0.276c-0.48-0.418-0.922-0.606-1.615-0.606
	c-1.08,0-1.742,0.591-1.742,1.537c0,0.441,0.15,0.787,0.441,1.032c0.244,0.213,0.576,0.347,1.001,0.409l0.654,0.104
	c0.465,0.063,0.599,0.133,0.812,0.299c0.213,0.182,0.309,0.449,0.309,0.789c0,0.732-0.553,1.158-1.443,1.158
	c-0.67,0-1.088-0.158-1.592-0.662l-0.3,0.3c0.513,0.513,1.04,0.741,1.868,0.741C79.375,24.25,80.093,23.65,80.093,22.697
	 M72.083,24.202h3.405v-0.378h-2.979v-2.263h2.538v-0.378h-2.538v-2.216h2.979v-0.378h-3.405V24.202z M67.573,24.202h3.406v-0.378
	h-2.98v-5.234h-0.426V24.202z M64.334,19.157l1.175,3.303h-2.35L64.334,19.157z M66.132,24.202h0.457l-2.066-5.612h-0.378
	l-2.065,5.612h0.457l0.489-1.364h2.617L66.132,24.202z M60.228,17.556l-0.236-0.229c-0.245,0.244-0.348,0.26-0.466,0.26
	c-0.157,0-0.276-0.063-0.441-0.165c-0.189-0.118-0.315-0.188-0.544-0.188c-0.15,0-0.339,0.016-0.701,0.378l0.236,0.229
	c0.244-0.244,0.339-0.26,0.465-0.26c0.158,0,0.291,0.079,0.441,0.165c0.182,0.103,0.323,0.189,0.544,0.189
	C59.667,17.935,59.864,17.919,60.228,17.556z M60.669,24.202h0.426v-5.612h-0.426v4.863l-3.24-4.863h-0.426v5.612h0.426v-4.88
	L60.669,24.202z M52.289,24.202h3.405v-0.378h-2.979v-2.263h2.538v-0.378h-2.538v-2.216h2.979v-0.378h-3.405V24.202z M50.956,22.697
	c0-0.449-0.181-0.836-0.488-1.088c-0.229-0.197-0.473-0.301-1.001-0.371l-0.606-0.095c-0.316-0.055-0.639-0.181-0.836-0.347
	s-0.292-0.41-0.292-0.733c0-0.717,0.481-1.158,1.301-1.158c0.662,0,1.032,0.204,1.364,0.521l0.275-0.276
	c-0.48-0.418-0.922-0.606-1.616-0.606c-1.08,0-1.742,0.591-1.742,1.537c0,0.441,0.149,0.787,0.441,1.032
	c0.245,0.213,0.575,0.347,1.001,0.409l0.654,0.104c0.465,0.063,0.6,0.133,0.813,0.299c0.213,0.182,0.307,0.449,0.307,0.789
	c0,0.732-0.551,1.158-1.441,1.158c-0.671,0-1.088-0.158-1.593-0.662l-0.3,0.3c0.513,0.513,1.041,0.741,1.869,0.741
	C50.239,24.25,50.956,23.65,50.956,22.697z M40.938,24.202h3.405v-0.378h-2.98v-2.263h2.539v-0.378h-2.539v-2.216h2.98v-0.378
	h-3.405V24.202z M38.999,21.317c0,0.63,0.023,1.608-0.418,2.073c-0.324,0.339-0.757,0.434-1.206,0.434h-1.356v-4.856h1.356
	c0.449,0,0.882,0.095,1.206,0.434C39.022,19.867,38.999,20.686,38.999,21.317z M39.424,21.317c0-0.757,0.024-1.647-0.544-2.216
	c-0.339-0.338-0.812-0.512-1.403-0.512h-1.884v5.612h1.884c0.591,0,1.064-0.173,1.403-0.513
	C39.448,23.123,39.424,22.074,39.424,21.317z"/>
<path fill-rule="evenodd" clip-rule="evenodd" fill="#FFFFFF" d="M12.54,5.401c4.181,0,7.57,3.39,7.57,7.571
	c0,4.181-3.39,7.57-7.57,7.57c-4.181,0-7.571-3.39-7.571-7.57C4.969,8.791,8.358,5.401,12.54,5.401 M12.54,0.433
	c6.925,0,12.54,5.614,12.54,12.54c0,6.926-5.615,12.539-12.54,12.539C5.614,25.511,0,19.898,0,12.972
	C0,6.047,5.614,0.433,12.54,0.433z"/>
<path fill-rule="evenodd" clip-rule="evenodd" fill="#FFFFFF" d="M25.475,0.456c-1.388,0-2.513,1.125-2.513,2.513
	s1.125,2.513,2.513,2.513s2.513-1.125,2.513-2.513S26.863,0.456,25.475,0.456"/>
</svg>
