<?xml version="1.0" encoding="utf-8"?>
<!-- Generator: Adobe Illustrator 16.0.0, SVG Export Plug-In . SVG Version: 6.00 Build 0)  -->
<!DOCTYPE svg PUBLIC "-//W3C//DTD SVG 1.1//EN" "http://www.w3.org/Graphics/SVG/1.1/DTD/svg11.dtd">
<svg version="1.1" id="Capa_1" xmlns="http://www.w3.org/2000/svg" xmlns:xlink="http://www.w3.org/1999/xlink" x="0px" y="0px"
	 width="328.311px" height="47.914px" viewBox="0 0 328.311 47.914" enable-background="new 0 0 328.311 47.914"
	 xml:space="preserve">
<path fill-rule="evenodd" clip-rule="evenodd" fill="#FFFFFF" d="M38.05,27.344L6.108,47.307c-0.646,0.404-1.381,0.606-2.116,0.606
	c-0.666,0-1.333-0.166-1.936-0.501C0.788,46.709,0,45.373,0,43.921V3.995c0-1.453,0.788-2.789,2.057-3.492
	c1.269-0.708,2.821-0.665,4.052,0.105L38.05,20.572c1.167,0.731,1.877,2.01,1.877,3.386C39.927,25.334,39.217,26.613,38.05,27.344"
	/>
<path fill-rule="evenodd" clip-rule="evenodd" fill="#FFFFFF" d="M54.006,4.579L54.006,4.579c0.96,0,1.743,0.784,1.743,1.742v35.272
	c0,0.958-0.783,1.742-1.742,1.742h-0.001c-0.958,0-1.742-0.784-1.742-1.742V6.321C52.264,5.362,53.048,4.579,54.006,4.579"/>
<path fill-rule="evenodd" clip-rule="evenodd" fill="#FFFFFF" d="M76.323,37.112H76.28c-0.956,0-1.825-0.565-2.26-1.435l-8.172-16.3
	c-0.609-1.304-0.131-2.826,1.173-3.478c1.261-0.608,2.782-0.13,3.435,1.173l5.867,11.736l5.868-11.432
	c0.651-1.26,2.173-1.782,3.434-1.13s1.782,2.173,1.13,3.434l-8.171,15.996C78.149,36.546,77.28,37.112,76.323,37.112"/>
<path fill-rule="evenodd" clip-rule="evenodd" fill="#FFFFFF" d="M92.797,37.198c-1.521,0-2.738-1.217-2.738-2.695V17.726
	c0-1.478,1.218-2.651,2.738-2.651c1.435,0,2.652,1.174,2.652,2.651v16.778C95.449,35.981,94.231,37.198,92.797,37.198
	 M92.797,11.684c-1.521,0-2.738-1.217-2.738-2.651V8.815c0-1.521,1.218-2.695,2.738-2.695c1.435,0,2.652,1.174,2.652,2.695v0.218
	C95.449,10.467,94.231,11.684,92.797,11.684z"/>
<path fill-rule="evenodd" clip-rule="evenodd" fill="#FFFFFF" d="M109.053,31.939c-3.172,0-5.737-2.564-5.737-5.737
	s2.565-5.738,5.737-5.738c3.174,0,5.738,2.565,5.738,5.738S112.227,31.939,109.053,31.939 M117.79,4.208
	c-1.435,0-2.607,1.216-2.607,2.651V17.03c-1.782-1.13-3.869-1.826-6.13-1.826c-6.041,0-10.996,4.956-10.996,10.997
	c0,6.085,4.955,10.997,10.996,10.997c2.305,0,4.478-0.695,6.217-1.912c0.348,1.086,1.347,1.826,2.521,1.826
	c1.479,0,2.651-1.174,2.651-2.608V6.859C120.441,5.424,119.269,4.208,117.79,4.208z"/>
<path fill-rule="evenodd" clip-rule="evenodd" fill="#FFFFFF" d="M133.482,20.768c1.955,0,3.563,0.957,4.433,2.608H128.7
	C129.743,21.768,131.482,20.768,133.482,20.768 M143.479,26.202c0.175-0.435,0.349-0.869,0.349-1.261
	c0.087-1.435-0.696-3.043-1.392-4.259c-1.564-2.608-4.086-4.434-7.041-4.999c-0.652-0.131-1.261-0.174-1.912-0.174
	c-6.043,0-10.867,4.955-10.867,10.91c0,6.042,4.824,10.91,10.867,10.91c2.477,0,5.824-0.783,8.215-3.086
	c1.043-1,1.086-2.695,0.043-3.695c-1-1.043-2.651-1.043-3.694-0.043c-1.131,1.087-3.174,1.652-4.563,1.652
	c-2.695,0-4.913-1.913-5.521-4.391h13.387C142.392,27.766,143.131,27.027,143.479,26.202z"/>
<path fill-rule="evenodd" clip-rule="evenodd" fill="#FFFFFF" d="M156.692,20.638c-3.086,0-5.563,2.478-5.563,5.564
	s2.478,5.563,5.563,5.563c3.087,0,5.564-2.478,5.564-5.563S159.779,20.638,156.692,20.638 M156.692,37.112
	c-5.998,0-10.909-4.869-10.909-10.91c0-5.999,4.911-10.91,10.909-10.91s10.91,4.912,10.954,10.954
	C167.603,32.243,162.69,37.112,156.692,37.112z"/>
<path fill-rule="evenodd" clip-rule="evenodd" fill="#FFFFFF" d="M183.932,15.894c-0.85-0.225-1.733-0.342-2.638-0.342
	c-1.998,0-3.911,0.608-5.52,1.608c-0.348-1.043-1.304-1.782-2.477-1.782c-1.436,0-2.608,1.13-2.608,2.564V34.59
	c0,1.435,1.173,2.608,2.608,2.608c1.434,0,2.607-1.173,2.607-2.608v-8.215c0-3.086,2.434-5.607,5.389-5.607
	c0.262,0,0.521,0.02,0.777,0.058L183.932,15.894z"/>
<path fill-rule="evenodd" clip-rule="evenodd" fill="#FFFFFF" d="M197.042,20.768c1.956,0,3.564,0.957,4.434,2.608h-9.215
	C193.305,21.768,195.043,20.768,197.042,20.768 M207.04,26.202c0.173-0.435,0.348-0.869,0.348-1.261
	c0.087-1.435-0.695-3.043-1.392-4.259c-1.564-2.608-4.086-4.434-7.041-4.999c-0.652-0.131-1.261-0.174-1.913-0.174
	c-6.041,0-10.866,4.955-10.866,10.91c0,6.042,4.825,10.91,10.866,10.91c2.479,0,5.825-0.783,8.216-3.086
	c1.043-1,1.086-2.695,0.043-3.695c-0.999-1.043-2.651-1.043-3.694-0.043c-1.13,1.087-3.173,1.652-4.564,1.652
	c-2.695,0-4.911-1.913-5.52-4.391h13.387C205.953,27.766,206.692,27.027,207.04,26.202z"/>
<path fill-rule="evenodd" clip-rule="evenodd" fill="#FFFFFF" d="M217.559,37.285c-2.782,0-5.563-1.13-6.998-2.478
	c-1.043-0.956-1.13-2.608-0.13-3.651c0.956-1.086,2.607-1.13,3.651-0.173c0.782,0.739,3.693,1.739,5.346,0.652
	c0.435-0.261,0.695-0.739,0.695-1.217c0-0.608-0.521-1.043-0.956-1.217c-0.392-0.218-1.087-0.218-1.869-0.218
	c-1.044,0-2.217-0.043-3.435-0.478c-2.26-0.739-4.085-3.086-4.259-5.346c-0.218-2.738,0.956-4.434,1.956-5.39
	c2.173-2,5.346-2.304,7.649-1.913c1.739,0.304,3.043,0.913,4.13,1.913c1.043,0.957,1.13,2.608,0.174,3.651
	c-0.565,0.608-1.392,0.913-2.218,0.826c-0.391-0.043-0.782-0.174-1.13-0.391c-0.607-0.435-1.043-0.739-1.825-0.87
	c-1.304-0.217-3.738-0.13-3.564,1.739c0.044,0.217,0.436,0.782,0.782,0.913c0.436,0.131,1.087,0.131,1.782,0.131
	c1.131,0.043,2.564,0.043,3.999,0.695c2.391,1.086,3.956,3.434,3.956,5.955c0,2.217-1.131,4.303-2.999,5.563
	C220.818,36.938,219.21,37.285,217.559,37.285"/>
<path fill-rule="evenodd" clip-rule="evenodd" fill="#FFFFFF" d="M238.64,37.329c-5.65,0-10.302-4.912-10.302-10.91v-8.302
	c0-1.434,1.087-2.608,2.435-2.608c1.391,0,2.738,1.174,2.738,2.608v8.302c0,3.129,2.607,5.65,5.129,5.65
	c2.955,0,5.173-2.521,5.173-5.65v-7.955c0-1.478,1.521-2.608,2.694-2.608c1.348,0,2.478,1.13,2.478,2.608v7.955
	C248.984,32.417,244.334,37.329,238.64,37.329"/>
<path fill-rule="evenodd" clip-rule="evenodd" fill="#FFFFFF" d="M281.584,23.768c0-4.521-3.868-8.215-8.519-8.215
	c-2.392,0-4.478,0.869-5.999,2.347c-1.608-1.478-3.694-2.347-5.998-2.347c-1.435,0-2.782,0.348-3.999,0.957
	c-0.392-0.609-1.174-1.044-1.999-1.044c-1.392,0-2.608,1.218-2.608,2.652v16.604c0,1.391,1.217,2.564,2.608,2.564
	c1.478,0,2.607-1.173,2.607-2.564V23.768c0-1.695,1.521-3,3.391-3c1.868,0,3.391,1.304,3.391,3c0,0.043,0,0.086,0,0.13v0.174V34.59
	c0,1.478,1.13,2.608,2.607,2.608c1.391,0,2.564-1.13,2.564-2.608V24.072c0-0.044,0-0.087,0-0.174v-0.13c0-1.695,1.521-3,3.435-3
	c1.781,0,3.303,1.304,3.303,3c0,0.043,0,0.086,0,0.13v0.174V34.59c0,1.478,1.217,2.608,2.651,2.608s2.564-1.13,2.564-2.608V24.072
	c0-0.044,0-0.087,0-0.174V23.768z"/>
<path fill-rule="evenodd" clip-rule="evenodd" fill="#FFFFFF" d="M295.059,20.768c1.956,0,3.564,0.957,4.434,2.608h-9.215
	C291.32,21.768,293.06,20.768,295.059,20.768 M305.056,26.202c0.174-0.435,0.348-0.869,0.348-1.261
	c0.088-1.435-0.695-3.043-1.391-4.259c-1.564-2.608-4.086-4.434-7.042-4.999c-0.651-0.131-1.26-0.174-1.912-0.174
	c-6.042,0-10.866,4.955-10.866,10.91c0,6.042,4.824,10.91,10.866,10.91c2.478,0,5.824-0.783,8.215-3.086
	c1.044-1,1.087-2.695,0.044-3.695c-1-1.043-2.651-1.043-3.694-0.043c-1.131,1.087-3.174,1.652-4.564,1.652
	c-2.695,0-4.912-1.913-5.52-4.391h13.387C303.969,27.766,304.708,27.027,305.056,26.202z"/>
<path fill-rule="evenodd" clip-rule="evenodd" fill="#FFFFFF" d="M318.139,15.509c-1.955,0-3.737,0.565-5.302,1.564
	c-0.348-1.043-1.305-1.782-2.435-1.782c-1.435,0-2.607,1.174-2.607,2.608v16.604c0,1.435,1.173,2.608,2.607,2.608
	s2.608-1.174,2.608-2.608v-7.389c0-2.999,1.738-6.389,5.128-6.389c2.739,0,4.999,2.477,4.999,5.563v8.215
	c0,1.435,1.13,2.608,2.608,2.608c1.434,0,2.564-1.174,2.564-2.608v-8.215C328.311,20.333,323.746,15.509,318.139,15.509"/>
<path fill-rule="evenodd" clip-rule="evenodd" fill="#FFFFFF" d="M183.035,15.75c1.433,0,2.595,1.162,2.595,2.595
	c0,1.432-1.162,2.594-2.595,2.594s-2.595-1.162-2.595-2.594C180.44,16.912,181.603,15.75,183.035,15.75"/>
</svg>
